<svg width="99" height="88" viewBox="0 0 99 88" fill="none" xmlns="http://www.w3.org/2000/svg">
<g clip-path="url(#clip0)">
<path d="M99 21.0836V66.9164C99 72.4903 93.9266 77 87.656 77H11.344C10.3122 77 9.32279 76.8899 8.41491 76.6334C3.54769 75.4968 0 71.5732 0 66.9164V21.0836C0 15.5097 5.07342 11 11.344 11H87.656C93.9266 11 99 15.5097 99 21.0836Z" fill="#ECEFF1"/>
<path d="M28.8747 29.3336C28.8747 33.3834 25.1813 36.6664 20.6253 36.6664C16.0685 36.6664 12.375 33.3834 12.375 29.3336C12.375 25.2831 16.0685 22 20.6253 22C25.1813 22 28.8747 25.2831 28.8747 29.3336Z" fill="#FFC107"/>
<path d="M99 58.4469V66.9165C99 72.4903 93.9266 77 87.656 77H11.344C10.3123 77 9.3228 76.8899 8.41492 76.6334L58.8228 31.8264C61.6273 29.3336 66.2475 29.3336 69.0527 31.8264L99 58.4469Z" fill="#388E3C"/>
<path d="M70.3722 77H11.344C10.3122 77 9.32279 76.8899 8.41491 76.6334C3.54769 75.4968 0 71.5732 0 66.9164V65.7798L23.7598 44.66C26.565 42.1664 31.1852 42.1664 33.9897 44.66L70.3722 77Z" fill="#4CAF50"/>
</g>
<defs>
<clipPath id="clip0">
<rect width="99" height="88" fill="white"/>
</clipPath>
</defs>
</svg>
