<svg width="292" height="76" viewBox="0 0 292 76" fill="none" xmlns="http://www.w3.org/2000/svg">
<path d="M83.6 24.48H102.92V30.56H93.32V35.56H102.08V40.6H93.32V45.92H102.92V52H83.6V24.48ZM115.395 52.32C113.661 52.32 112.035 51.8667 110.515 50.96C109.021 50.0267 107.821 48.7733 106.915 47.2C106.008 45.6 105.555 43.8267 105.555 41.88C105.555 39.96 106.008 38.2267 106.915 36.68C107.821 35.1067 109.035 33.88 110.555 33C112.075 32.12 113.688 31.68 115.395 31.68C116.781 31.68 118.061 32.0667 119.235 32.84C120.435 33.6133 121.341 34.7733 121.955 36.32V31.68H130.355V52H121.955V48.28C120.621 50.9733 118.435 52.32 115.395 52.32ZM117.995 46C119.061 46 119.968 45.6267 120.715 44.88C121.488 44.1067 121.901 43.2 121.955 42.16V41.84C121.901 40.7733 121.475 39.8667 120.675 39.12C119.901 38.3733 119.008 38 117.995 38C116.875 38 115.915 38.4 115.115 39.2C114.341 39.9733 113.955 40.9067 113.955 42C113.955 43.12 114.355 44.0667 115.155 44.84C115.955 45.6133 116.901 46 117.995 46ZM141.326 52.32C138.526 52.32 136.073 51.9067 133.966 51.08L134.886 46.32C136.806 47.0133 138.673 47.36 140.486 47.36C141.82 47.36 142.486 46.9867 142.486 46.24C142.486 45.8667 142.286 45.56 141.886 45.32C141.513 45.08 140.793 44.8667 139.726 44.68C137.513 44.2533 135.913 43.5333 134.926 42.52C133.966 41.5067 133.486 40.0667 133.486 38.2C133.593 36.0933 134.433 34.48 136.006 33.36C137.58 32.24 139.726 31.68 142.446 31.68C143.833 31.68 145.02 31.7733 146.006 31.96C147.02 32.12 147.94 32.4 148.766 32.8L147.926 37.56C147.153 37.2667 146.3 37.04 145.366 36.88C144.46 36.72 143.7 36.64 143.086 36.64C142.18 36.64 141.553 36.7333 141.206 36.92C140.86 37.1067 140.686 37.36 140.686 37.68C140.686 38.2667 141.353 38.68 142.686 38.92C145.113 39.3467 146.926 40.0933 148.126 41.16C149.326 42.2267 149.926 43.68 149.926 45.52C149.926 47.6267 149.18 49.2933 147.686 50.52C146.22 51.72 144.1 52.32 141.326 52.32ZM163.523 61.16C162.056 61.16 160.656 61.0133 159.323 60.72L159.963 54.8C161.003 54.96 161.963 55.04 162.843 55.04C164.416 55.04 165.616 54.56 166.443 53.6C167.269 52.6667 167.696 50.8933 167.723 48.28C166.336 50.9467 164.109 52.28 161.043 52.28C158.456 52.28 156.429 51.3733 154.963 49.56C153.523 47.72 152.803 45.1867 152.803 41.96V31.96H161.203V43.2C161.203 44.1067 161.456 44.8667 161.963 45.48C162.469 46.0667 163.163 46.36 164.043 46.36C164.949 46.36 165.683 45.9733 166.243 45.2C166.829 44.4267 167.123 43.4133 167.123 42.16V31.96H175.563V46.92C175.563 51.56 174.523 55.0933 172.443 57.52C170.363 59.9467 167.389 61.16 163.523 61.16ZM182.685 30.56H176.965V24.48H197.725V30.56H192.005V52H182.685V30.56ZM214.069 52.64C211.189 52.64 208.629 52.0267 206.389 50.8C204.176 49.5733 202.443 47.88 201.189 45.72C199.963 43.5333 199.349 41.0533 199.349 38.28C199.349 35.48 199.963 32.9867 201.189 30.8C202.443 28.6133 204.176 26.92 206.389 25.72C208.629 24.4933 211.189 23.88 214.069 23.88C216.949 23.88 219.496 24.4933 221.709 25.72C223.949 26.92 225.683 28.6133 226.909 30.8C228.163 32.96 228.789 35.4533 228.789 38.28C228.789 41.0533 228.163 43.5333 226.909 45.72C225.683 47.88 223.949 49.5733 221.709 50.8C219.469 52.0267 216.923 52.64 214.069 52.64ZM214.069 45.36C215.749 45.36 217.123 44.7067 218.189 43.4C219.283 42.0933 219.829 40.3733 219.829 38.24C219.829 36.8267 219.576 35.5733 219.069 34.48C218.589 33.36 217.909 32.4933 217.029 31.88C216.149 31.24 215.149 30.92 214.029 30.92C212.936 30.92 211.949 31.24 211.069 31.88C210.189 32.4933 209.509 33.36 209.029 34.48C208.549 35.5733 208.309 36.8267 208.309 38.24C208.309 40.3733 208.843 42.0933 209.909 43.4C210.976 44.7067 212.363 45.36 214.069 45.36ZM232.623 24.48H251.943V30.56H242.343V35.56H251.103V40.6H242.343V45.92H251.943V52H232.623V24.48ZM256.413 24.48H265.653V52H256.413V24.48ZM283.826 52.64C281.159 52.64 278.732 52.0133 276.546 50.76C274.386 49.48 272.666 47.7467 271.386 45.56C270.132 43.3467 269.506 40.9067 269.506 38.24C269.506 35.52 270.119 33.0667 271.346 30.88C272.572 28.6933 274.252 26.9867 276.386 25.76C278.519 24.5067 280.919 23.88 283.586 23.88C285.026 23.88 286.439 24.0533 287.826 24.4C289.212 24.7467 290.399 25.24 291.386 25.88L290.306 32.08C288.386 31.36 286.652 31 285.106 31C282.972 31 281.332 31.6267 280.186 32.88C279.039 34.1067 278.466 35.88 278.466 38.2C278.466 40.4667 279.066 42.24 280.266 43.52C281.492 44.7733 283.186 45.4 285.346 45.4C286.172 45.4 286.946 45.32 287.666 45.16C288.386 45 289.266 44.7067 290.306 44.28L291.426 50.6C289.106 51.96 286.572 52.64 283.826 52.64Z" fill="white"/>
<g filter="url(#filter0_d)">
<circle cx="38" cy="38" r="30" fill="white"/>
</g>
<path d="M29.28 50V22.4H48.16V27.6H35.04V33.2H46.96V38.4H35.04V44.8H48.16V50H29.28Z" fill="#6CC57C"/>
<defs>
<filter id="filter0_d" x="0" y="0" width="76" height="76" filterUnits="userSpaceOnUse" color-interpolation-filters="sRGB">
<feFlood flood-opacity="0" result="BackgroundImageFix"/>
<feColorMatrix in="SourceAlpha" type="matrix" values="0 0 0 0 0 0 0 0 0 0 0 0 0 0 0 0 0 0 127 0"/>
<feMorphology radius="4" operator="dilate" in="SourceAlpha" result="effect1_dropShadow"/>
<feOffset/>
<feGaussianBlur stdDeviation="2"/>
<feColorMatrix type="matrix" values="0 0 0 0 0.423529 0 0 0 0 0.772549 0 0 0 0 0.486275 0 0 0 0.43 0"/>
<feBlend mode="normal" in2="BackgroundImageFix" result="effect1_dropShadow"/>
<feBlend mode="normal" in="SourceGraphic" in2="effect1_dropShadow" result="shape"/>
</filter>
</defs>
</svg>
