<svg width="120" height="100" xmlns="http://www.w3.org/2000/svg">
 <!-- Created with Method Draw - http://github.com/duopixel/Method-Draw/ -->

 <g>
  <title>background</title>
  <g display="none" overflow="visible" y="0" x="0" height="100%" width="100%" id="canvasGrid">
   <rect fill="url(#gridpattern)" stroke-width="0" y="0" x="0" height="100%" width="100%"/>
  </g>
 </g>
 <g>
  <title>Layer 1</title>

  <metadata transform="matrix(0.056346851065374404,0,0,0.056346851065374404,0,0) " id="svg_39">image/svg+xml</metadata>
  <g stroke="null" id="svg_41">
   <g stroke="null" transform="matrix(0.33587067955401445,0,0,0.5571922289764343,-2114.5938792145644,-2808.5618376822313) " id="svg_22">
    <path fill="#004b8e" id="svg_38" d="m6542.4995,5115.12103c0.002,-11.23659 7.97454,-20.71694 26.76904,-20.58185c12.89142,0.16666 16.92005,3.03045 16.92005,3.03045l-4.45098,11.80616c-4.41638,-1.6389 -7.29818,-2.926 -13.35296,-3.03046c-6.05478,-0.10446 -11.45951,3.0697 -10.89071,6.7554c0.74284,4.66375 7.63922,6.89053 13.16356,9.75429c5.52434,2.86376 11.86118,7.89199 11.74302,16.35184c0.0397,16.69891 -16.62634,21.54113 -27.02158,21.74985c-10.39524,0.20872 -16.76869,-2.47598 -21.08693,-5.05077l4.92449,-11.45891c4.96356,1.81106 10.74582,4.43706 17.14102,4.51411c6.39521,0.077 10.65243,-2.6249 10.76444,-7.3236c0.0489,-5.14064 -10.33876,-9.10157 -13.38452,-10.6066c-3.04576,-1.50503 -11.20792,-6.63569 -11.23794,-15.90991z"/>
    <path fill="#004b8e" id="svg_37" d="m6514.30692,5159.82028l9.75729,-52.40166l14.52842,0c2.74062,-8.56139 7.68019,-10.28157 12.5,-12.37437l-54.55357,0l-2.41071,12.37437l15.44643,0l-9.46429,52.40166l14.19643,0z"/>
    <path fill="#004b8e" id="svg_36" d="m6438.23549,5159.82028l43.125,0l2.14286,-12.14983l-28.57143,0l2.85714,-14.91072l25.625,0l2.14286,-12.05357l-25.44643,0l2.32143,-13.28754l26.96428,0l2.5,-12.37437l-41.69642,0l-11.96429,64.77603z"/>
    <path fill="#8a2529" id="svg_35" d="m6467.5212,5084.45616c0,0 33.15669,-40.14428 92.14286,-39.64285c51.54472,0.43818 72.38302,29.94159 73.03572,58.75c0.64228,28.34873 -33.03572,56.25697 -33.03572,56.25697c0,0 16.65359,-23.48189 16.42858,-48.93554c-0.2736,-30.95003 -21.45662,-53.53498 -66.25,-54.28572c-44.43845,-0.74478 -82.32144,27.85714 -82.32144,27.85714z"/>
    <path fill="#004b8e" id="svg_34" d="m6384.12162,5071.80462c-31.32656,9.98933 -79.34698,44.01769 -79.1044,83.79802c0.20456,33.54524 30.89682,58.01514 82.83251,58.08377c79.52718,0.10509 120.20719,-47.7947 120.20719,-47.7947c0,0 -40.82437,35.00272 -108.21429,36.95731c-32.2418,0.93514 -77.84098,-12.07332 -77.14285,-51.60714c0.87066,-49.30417 61.42184,-79.43726 61.42184,-79.43726z"/>
    <g font-size="15.66735px" font-style="normal" font-weight="normal" fill="#004b8e" font-family="Arial" id="svg_32" transform="translate(-28.030818939208984,-225.57180786132812) scale(0.9712285995483398,1.0296237468719482) ">
     <path stroke="null" fill="#004b8e" id="svg_33" d="m6847.57196,5244.22807l-1.87427,0l-0.94096,-2.64692c-0.18871,-0.52531 -0.44498,-0.92056 -0.76883,-1.18577c-0.32386,-0.26519 -0.75864,-0.39779 -1.30434,-0.3978l-2.18792,0l0,4.23049l-1.72892,0l0,-10.3735l4.60535,0c0.5508,0.00001 1.05825,0.0485 1.52236,0.14535c0.4641,0.0969 0.86318,0.25884 1.19724,0.48578c0.33405,0.22696 0.59415,0.52787 0.78031,0.90271c0.18614,0.37486 0.27922,0.84024 0.27923,1.39614c-0.00001,0.72931 -0.19764,1.32347 -0.59288,1.78247c-0.39527,0.45901 -0.955,0.75736 -1.6792,0.89506c0.3774,0.1479 0.69743,0.38633 0.96009,0.71528c0.26264,0.32895 0.49087,0.75608 0.68468,1.28139l1.04806,2.76932zm-7.07632,-5.6993l2.69283,0c0.3825,0 0.71145,-0.0306 0.98686,-0.0918c0.27539,-0.0612 0.50107,-0.1581 0.67703,-0.29071c0.17594,-0.13259 0.30599,-0.30472 0.39015,-0.51638c0.0841,-0.21164 0.12622,-0.46792 0.12623,-0.76883c-0.00001,-0.5406 -0.16194,-0.94478 -0.48578,-1.21254c-0.32386,-0.26774 -0.82749,-0.40162 -1.51089,-0.40163l-2.87643,0l0,3.28189z"/>
    </g>
    <path stroke="#004b8e" fill="none" d="m6626.80692,5168.74188c0,4.73386 -3.83756,8.57142 -8.57143,8.57142c-4.73387,0 -8.57143,-3.83756 -8.57143,-8.57142c0,-4.73387 3.83756,-8.57143 8.57143,-8.57143c4.73387,0 8.57143,3.83756 8.57143,8.57143z" id="svg_31"/>
    <polyline stroke-linecap="round" id="svg_47" points="-204.3469696044922,16.58159637451172 -204.3469696044922,16.58159637451172 -204.3469696044922,16.58159637451172 -204.3469696044922,18.58159637451172 -204.3469696044922,21.58159637451172 -204.3469696044922,23.58159637451172 -204.3469696044922,30.58159637451172 -204.3469696044922,35.58159637451172 -204.3469696044922,39.58159637451172 -203.3469696044922,42.58159637451172 -200.3469696044922,46.58159637451172 -196.3469696044922,49.58159637451172 -192.3469696044922,51.58159637451172 -189.3469696044922,52.58159637451172 -185.3469696044922,53.58159637451172 -182.3469696044922,53.58159637451172 -181.3469696044922,53.58159637451172 -178.3469696044922,52.58159637451172 -175.3469696044922,51.58159637451172 -174.3469696044922,50.58159637451172 -172.3469696044922,49.58159637451172 -172.3469696044922,48.58159637451172 -172.3469696044922,47.58159637451172 -171.3469696044922,45.58159637451172 -171.3469696044922,42.58159637451172 -170.3469696044922,38.58159637451172 -169.3469696044922,37.58159637451172 -169.3469696044922,36.58159637451172 -169.3469696044922,35.58159637451172 -169.3469696044922,35.58159637451172 " opacity="0.5" stroke-width="3" fill="none"/>
    <polyline stroke-linecap="round" id="svg_48" points="-153.3469696044922,17.58159637451172 -144.3469696044922,17.58159637451172 -131.3469696044922,17.58159637451172 -117.34696960449219,16.58159637451172 -104.34696960449219,14.581596374511719 -97.34696960449219,13.581596374511719 -97.34696960449219,13.581596374511719 -97.34696960449219,13.581596374511719 -104.34696960449219,11.581596374511719 -122.34696960449219,11.581596374511719 -142.3469696044922,11.581596374511719 -155.3469696044922,13.581596374511719 -157.3469696044922,14.581596374511719 -156.3469696044922,14.581596374511719 -143.3469696044922,7.581596374511719 -123.34696960449219,-0.41840362548828125 -86.34696960449219,-12.418403625488281 -69.34696960449219,-17.41840362548828 -64.34696960449219,-17.41840362548828 -67.34696960449219,-17.41840362548828 -72.34696960449219,-16.41840362548828 -94.34696960449219,-10.418403625488281 -123.34696960449219,-2.4184036254882812 -146.3469696044922,4.581596374511719 -158.3469696044922,8.581596374511719 -160.3469696044922,9.581596374511719 -159.3469696044922,9.581596374511719 -149.3469696044922,9.581596374511719 -114.34696960449219,7.581596374511719 -91.34696960449219,5.581596374511719 -70.34696960449219,5.581596374511719 -61.34696960449219,5.581596374511719 -60.34696960449219,5.581596374511719 " opacity="0.5" stroke-width="3" fill="none"/>
   </g>
   <text transform="rotate(-2 29.250000000000135,53.49999999999998) " font-style="italic" font-weight="bold" xml:space="preserve" text-anchor="start" font-family="Helvetica, Arial, sans-serif" font-size="39" id="svg_55" y="67" x="13.5" stroke-width="3" fill="#004b8e">U</text>
  </g>
 </g>
</svg>
